<svg version="1.1" xmlns="http://www.w3.org/2000/svg" xmlns:xlink="http://www.w3.org/1999/xlink" x="0px" y="0px" viewBox="0 0 40 40" style="enable-background:new 0 0 80 80;" width="80px" height="80px" xml:space="preserve">
<style type="text/css">
	.st0{fill:#EB6610;}
</style>
<g>
	<path class="st0" d="M0,17.11c0.41-0.5,0.76-1.06,1.24-1.48c5.37-4.78,10.75-9.55,16.13-14.32c1.94-1.72,4.79-1.76,6.73-0.05 c3.75,3.3,7.5,6.58,11.19,9.94c1.69,1.54,2.6,3.56,2.64,5.85c0.07,3.76,0.02,7.53,0.02,11.29c0,1.08-0.78,1.9-1.78,1.91 c-1.01,0.01-1.84-0.85-1.85-1.95c-0.01-3.57-0.02-7.15,0-10.72c0.01-1.6-0.57-2.93-1.76-3.98c-3.55-3.16-7.11-6.32-10.68-9.48 c-0.78-0.69-1.47-0.68-2.25,0.01c-4.02,3.56-8.04,7.12-12.05,10.7c-0.22,0.19-0.38,0.57-0.38,0.86C7.19,21.78,7.2,27.85,7.2,33.92 c0,0.8,0.09,0.89,0.94,0.89c7.94,0,15.87,0,23.81,0c0.32,0,0.64,0.01,0.94,0.08c0.96,0.2,1.51,0.98,1.42,1.95 c-0.09,0.92-0.78,1.55-1.75,1.58c-0.15,0-0.3,0-0.44,0c-8.06,0-16.13,0-24.19,0c-2.61,0-4.33-1.71-4.34-4.32c0-4.91,0-9.81,0-14.72 c0-0.25,0-0.5,0-0.85c-0.19,0.11-0.32,0.16-0.43,0.24c-1.2,0.93-2.39,0.63-3.04-0.75c-0.03-0.06-0.08-0.1-0.12-0.15 C0,17.62,0,17.37,0,17.11z"/>
</g>
</svg>