<?xml version="1.0" encoding="UTF-8"?>
<svg version="1.1" xmlns="http://www.w3.org/2000/svg" xmlns:xlink="http://www.w3.org/1999/xlink" x="0px" y="0px" viewBox="0 0 130 38.72" style="enable-background:new 0 0 130 38.72;" xml:space="preserve" width="260px" height="80px">
<style type="text/css">
	.st0{fill:#EB6610;}
	.st1{fill:#6B6C6A;}
</style>
<g>
	<path class="st0" d="M0,17.11c0.41-0.5,0.76-1.06,1.24-1.48c5.37-4.78,10.75-9.55,16.13-14.32c1.94-1.72,4.79-1.76,6.73-0.05 c3.75,3.3,7.5,6.58,11.19,9.94c1.69,1.54,2.6,3.56,2.64,5.85c0.07,3.76,0.02,7.53,0.02,11.29c0,1.08-0.78,1.9-1.78,1.91 c-1.01,0.01-1.84-0.85-1.85-1.95c-0.01-3.57-0.02-7.15,0-10.72c0.01-1.6-0.57-2.93-1.76-3.98c-3.55-3.16-7.11-6.32-10.68-9.48 c-0.78-0.69-1.47-0.68-2.25,0.01c-4.02,3.56-8.04,7.12-12.05,10.7c-0.22,0.19-0.38,0.57-0.38,0.86C7.19,21.78,7.2,27.85,7.2,33.92 c0,0.8,0.09,0.89,0.94,0.89c7.94,0,15.87,0,23.81,0c0.32,0,0.64,0.01,0.94,0.08c0.96,0.2,1.51,0.98,1.42,1.95 c-0.09,0.92-0.78,1.55-1.75,1.58c-0.15,0-0.3,0-0.44,0c-8.06,0-16.13,0-24.19,0c-2.61,0-4.33-1.71-4.34-4.32c0-4.91,0-9.81,0-14.72 c0-0.25,0-0.5,0-0.85c-0.19,0.11-0.32,0.16-0.43,0.24c-1.2,0.93-2.39,0.63-3.04-0.75c-0.03-0.06-0.08-0.1-0.12-0.15 C0,17.62,0,17.37,0,17.11z"/>
	<path class="st1" d="M49.73,38.72c-2.1-0.13-4.16-0.34-6.11-1.13c-1.81-0.73-3.22-1.92-3.87-3.85c-0.35-1.04,0.12-2.01,1.14-2.41 c0.91-0.35,1.98,0.09,2.35,1.04c0.34,0.86,0.93,1.42,1.77,1.7c3.19,1.04,6.41,1.15,9.56-0.06c2.29-0.88,2.46-2.48,2.13-4.44 c-0.18-1.05-0.94-1.74-1.9-2.03c-1.47-0.44-2.97-0.79-4.48-1.05c-1.97-0.33-3.98-0.43-5.86-1.22c-2.77-1.16-4.17-3.3-4.09-6.29 c0.09-3.52,2.18-6.24,5.65-7.16c4.26-1.13,8.29-0.57,12.01,1.86c1.05,0.68,1.34,1.8,0.75,2.72c-0.6,0.94-1.76,1.11-2.84,0.43 c-2.96-1.88-6.13-2.35-9.44-1.15c-1.81,0.65-2.64,2.3-2.3,4.18c0.25,1.42,1.35,1.96,2.57,2.21c1.65,0.34,3.33,0.53,5,0.78 c2.1,0.32,4.16,0.75,5.96,1.97c1.72,1.17,2.63,2.81,2.84,4.86c0.53,5.18-2.8,7.64-6.37,8.42C52.72,38.42,51.22,38.52,49.73,38.72z"/>
	<path class="st1" d="M72.9,28.79c-1.54,0-3.09,0.01-4.63-0.01c-0.42-0.01-0.64,0.14-0.8,0.54c-1.02,2.57-2.08,5.12-3.11,7.69 c-0.28,0.7-0.69,1.27-1.49,1.39c-1.58,0.24-2.69-1.1-2.09-2.58c1.63-4.07,3.29-8.14,4.94-12.2c1.06-2.62,2.1-5.25,3.21-7.85 c0.34-0.8,0.8-1.6,1.37-2.26c1.54-1.76,4.04-1.71,5.43,0.16c0.76,1.03,1.31,2.26,1.8,3.46c2.53,6.14,5.01,12.3,7.51,18.46 c0.67,1.64-0.3,3.03-1.97,2.82c-0.76-0.09-1.21-0.58-1.48-1.24c-1.04-2.54-2.08-5.07-3.07-7.63c-0.23-0.59-0.54-0.79-1.16-0.77 C75.86,28.82,74.38,28.79,72.9,28.79z M73.09,16.3c-0.1-0.01-0.19-0.02-0.29-0.03c-1.18,2.88-2.36,5.77-3.56,8.72 c2.52,0,4.91,0,7.4,0C75.43,22.04,74.26,19.17,73.09,16.3z"/>
	<path class="st1" d="M86.52,26.87c0-3,0.05-6-0.02-9c-0.07-3.1,2.38-5.55,5.46-5.44c3.04,0.11,6.09,0.01,9.14,0.03 c1.56,0.01,2.45,1.47,1.69,2.76c-0.39,0.67-1.03,0.89-1.78,0.88c-2.81-0.01-5.63,0-8.44,0c-0.29,0-0.59,0.02-0.88,0.07 c-0.73,0.12-1.19,0.61-1.2,1.33c-0.02,2.39,0,4.78-0.02,7.17c0,0.48,0.27,0.48,0.61,0.48c2.71,0,5.42-0.01,8.12,0 c1.47,0.01,2.3,1.42,1.59,2.67c-0.35,0.62-0.94,0.82-1.61,0.82c-2.62,0.01-5.25,0.01-7.87,0.01c-0.84,0-0.84,0-0.84,0.82 c-0.01,2.35,0,4.69-0.05,7.04c-0.03,1.2-0.86,1.91-2.01,1.87c-1.18-0.04-1.89-0.77-1.89-2C86.52,33.21,86.52,30.04,86.52,26.87z"/>
	<path class="st1" d="M112.32,16.16c-1.85,0-3.58,0.01-5.31,0c-0.38,0-0.76-0.03-1.13-0.1c-0.96-0.18-1.5-0.9-1.46-1.92 c0.03-0.89,0.67-1.57,1.59-1.68c0.15-0.02,0.3-0.01,0.44-0.01c5.25,0,10.49,0,15.74,0c0.82,0,1.5,0.24,1.88,1.03 c0.53,1.12-0.05,2.36-1.28,2.58c-0.7,0.12-1.43,0.1-2.15,0.11c-1.41,0.01-2.83,0-4.34,0c0,0.33,0,0.6,0,0.86c0,6.45,0,12.9,0,19.35 c0,1.58-1.44,2.48-2.91,1.83c-0.82-0.36-1.04-1.06-1.06-1.86c-0.02-0.99-0.01-1.99-0.01-2.98c0-5.43,0-10.87,0-16.3 C112.32,16.79,112.32,16.52,112.32,16.16z"/>
	<path class="st1" d="M125.75,25.36c0-3.66,0.01-7.31-0.01-10.97c0-0.8,0.24-1.44,0.98-1.75c0.8-0.34,1.62-0.31,2.34,0.24 c0.48,0.37,0.58,0.89,0.58,1.47c-0.01,3.02,0,6.04,0,9.07c0,4.31,0,8.62,0,12.93c0,1.5-1.07,2.33-2.52,1.96 c-0.89-0.23-1.36-0.81-1.36-1.73C125.75,32.84,125.75,29.1,125.75,25.36z"/>
	<path class="st1" d="M130,8.66c0.01,1.26-1.01,2.3-2.27,2.32c-1.28,0.02-2.35-1.04-2.34-2.32c0.01-1.26,1.05-2.29,2.31-2.29 C128.95,6.36,129.99,7.4,130,8.66z"/>
</g>
</svg>